
<svg xmlns="http://www.w3.org/2000/svg" version="1.1" xmlns:xlink="http://www.w3.org/1999/xlink" preserveAspectRatio="none" x="0px" y="0px" width="57px" height="57px" viewBox="0 0 57 57">
<defs>
<g id="Layer0_0_FILL">
<path fill="#FFFFFF" stroke="none" d="
M 23.05 18.95
L 23.05 20.55 18.85 20.55
Q 18.35 20.55 18.35 21.05
L 18.35 23.15
Q 18.35 23.65 18.85 23.65
L 19.4 23.65
Q 19.9 23.65 19.9 24.15
L 19.9 40.45
Q 19.9 40.95 20.4 40.95
L 36.7 40.95
Q 37.2 40.95 37.2 40.45
L 37.2 24.15
Q 37.2 23.65 37.7 23.65
L 38.25 23.65
Q 38.75 23.65 38.75 23.15
L 38.75 21.05
Q 38.75 20.55 38.25 20.55
L 34.05 20.55 34.05 18.95
Q 34.05 16.85 33.1 16.2 32.5 15.8 30.9 15.8
L 26.2 15.8
Q 24.1 15.8 23.45 16.8 23.05 17.4 23.05 18.95
M 28.25 24.6
L 28.85 24.6
Q 29.35 24.6 29.35 25.1
L 29.35 37.3
Q 29.35 37.8 28.85 37.8
L 28.25 37.8
Q 27.75 37.8 27.75 37.3
L 27.75 25.1
Q 27.75 24.6 28.25 24.6
M 23.55 24.6
L 24.1 24.6
Q 24.6 24.6 24.6 25.1
L 24.6 37.3
Q 24.6 37.8 24.1 37.8
L 23.55 37.8
Q 23.05 37.8 23.05 37.3
L 23.05 25.1
Q 23.05 24.6 23.55 24.6
M 26.2 20.55
L 26.2 18.95 30.9 18.95 30.9 20.55 26.2 20.55
M 33 24.6
L 33.55 24.6
Q 34.05 24.6 34.05 25.1
L 34.05 37.3
Q 34.05 37.8 33.55 37.8
L 33 37.8
Q 32.5 37.8 32.5 37.3
L 32.5 25.1
Q 32.5 24.6 33 24.6 Z"/>

<path fill="#2A334C" stroke="none" d="
M 33.55 24.6
L 33 24.6
Q 32.5 24.6 32.5 25.1
L 32.5 37.3
Q 32.5 37.8 33 37.8
L 33.55 37.8
Q 34.05 37.8 34.05 37.3
L 34.05 25.1
Q 34.05 24.6 33.55 24.6
M 26.2 18.95
L 26.2 20.55 30.9 20.55 30.9 18.95 26.2 18.95
M 24.1 24.6
L 23.55 24.6
Q 23.05 24.6 23.05 25.1
L 23.05 37.3
Q 23.05 37.8 23.55 37.8
L 24.1 37.8
Q 24.6 37.8 24.6 37.3
L 24.6 25.1
Q 24.6 24.6 24.1 24.6
M 28.85 24.6
L 28.25 24.6
Q 27.75 24.6 27.75 25.1
L 27.75 37.3
Q 27.75 37.8 28.25 37.8
L 28.85 37.8
Q 29.35 37.8 29.35 37.3
L 29.35 25.1
Q 29.35 24.6 28.85 24.6 Z"/>
</g>
</defs>

<g transform="matrix( 1, 0, 0, 1, 0,0) ">
<use xlink:href="#Layer0_0_FILL"/>
</g>
</svg>
