<?xml version="1.0" encoding="utf-8"?>
<!-- Generator: Adobe Illustrator 20.1.0, SVG Export Plug-In . SVG Version: 6.00 Build 0)  -->
<svg version="1.1" id="Layer_1" xmlns="http://www.w3.org/2000/svg" xmlns:xlink="http://www.w3.org/1999/xlink" x="0px" y="0px"
	 viewBox="0 0 33.8 27.5" style="enable-background:new 0 0 33.8 27.5;" xml:space="preserve">
<style type="text/css">
	.st0{fill:#333333;}
	.st1{fill:#FFFFFF;}
	.st2{fill:#6A7082;}
</style>
<g transform="matrix( 1, 0, 0, 1, 0,0) ">
	<g>
		<g id="Layer2_0_FILL">
			<path class="st0" d="M33.8,17V0H0v17l16.9,10.5L33.8,17z"/>
		</g>
	</g>
</g>
<g transform="matrix( 1, 0, 0, 1, 0,0) ">
	<g>
		<g id="Layer1_0_FILL">
			<path class="st1" d="M33.3,16.8V0H0.5v16.8l16.4,10.1L33.3,16.8z"/>
		</g>
	</g>
	<rect x="0.5" y="-0.3" class="st1" width="32.8" height="4.4"/>
</g>
<g transform="matrix( 1, 0, 0, 1, 0,0) ">
	<g>
		<g id="Layer0_0_FILL">
			<path class="st2" d="M16.9,25.1l14.3-8.9H2.7L16.9,25.1 M31.8,9.2V5.8H2v3.3L31.8,9.2 M31.8,14.3v-3.4H2v3.4L31.8,14.3 M31.8,4.1
				V1.5H2v2.6H31.8z"/>
		</g>
	</g>
</g>
</svg>
