
<svg xmlns="http://www.w3.org/2000/svg" version="1.1" xmlns:xlink="http://www.w3.org/1999/xlink" preserveAspectRatio="none" x="0px" y="0px" width="57px" height="57px" viewBox="0 0 57 57">
<defs>
<g id="Layer0_0_FILL">
<path fill="#FFFFFF" stroke="none" d="
M 17.75 33.45
L 16.65 41.2 24.35 40.1 17.75 33.45
M 30.95 22.4
L 29.85 21.3 18.85 32.35 25.45 38.95 36.45 27.95 35.35 26.8 25.45 36.75 24.35 35.65 34.25 25.7 32.05 23.5 22.15 33.45 21.05 32.35 30.95 22.4
M 39.95 24.65
Q 40.35 24.2 40.35 23.6 40.35 22.95 39.9 22.5
L 35.5 18.1
Q 35 17.6 34.4 17.6 33.75 17.6 33.3 18.05
L 33.2 18.2 33.2 18.15 31.05 20.3 37.7 26.9 39.8 24.8 39.75 24.75 39.95 24.65 Z"/>
</g>
</defs>

<g transform="matrix( 1, 0, 0, 1, 0,0) ">
<use xlink:href="#Layer0_0_FILL"/>
</g>
</svg>
